<?xml version="1.0" encoding="utf-8"?>
<!-- Generator: Adobe Illustrator 22.1.0, SVG Export Plug-In . SVG Version: 6.00 Build 0)  -->
<svg version="1.1" id="Layer_1" xmlns="http://www.w3.org/2000/svg" xmlns:xlink="http://www.w3.org/1999/xlink" x="0px" y="0px"
	 viewBox="0 0 180 78" style="enable-background:new 0 0 180 78;" xml:space="preserve">
<style type="text/css">
	.st0{fill-rule:evenodd;clip-rule:evenodd;fill:#AE1F24;}
</style>
<path class="st0" d="M65.8,46.3C66.1,36,68.4,25.8,69.9,23c1.7-2.6,7.3-14.4,34.2-13.7c5,2.3,8.3,7.1,2.8,17.2
	C92.6,41.4,79.6,48.2,72.8,50.2c0,1.5,0.3,4.2,1.7,5.5c3.3,2.8,2.2,1.9,13.1,6.9c30.6,1.1,63.2-9,70.4-30.8c-0.7,0-1.5,0-2.2,0
	c-10,1.1-17.9,2.4-26.4,4.4c0-1.5,0-2.9,0-4.4c0.7-0.7,1.5-1.5,2.2-2.2c13.2-2.2,37.8-10.4,39.6-6.6c-0.5,13.4-4.9,32.3-6.6,37.4
	c-1.5,0-2.9,0-4.4,0c2.1-9.1,3.9-14.1,4.4-25.5c0-0.2,0-0.5,0-0.7c-0.7,0-1.5,2-2.2,2c-13.8,21.3-39.5,35.5-74.9,35.2
	c-4.5-1.2-9.9-2.2-17.6-11c-1.8-4.1-2.1-5.6-2.5-8.8c-10.8,0.1-28.3-0.8-37.1-6.6C19.8,37.9,15,23,6.1,14.2c0-1.5,0-2.9,0-4.4
	C9.9,8,10.1,4,12.7,7.6C29,25.5,30.8,45.9,65.8,46.3z M70,44.9c13.7-1.3,26.1-10.7,32.8-19.2c3.3-4.2,3.1-8.5,2.5-10.8
	c-1.1-1.8-6.1-2-13.4-0.7c-4,0.8-15.1,3.9-18.6,13.7C72.2,30,70.6,37.2,70,44.9z"/>
</svg>
