<?xml version="1.0" encoding="utf-8"?>
<!-- Generator: Adobe Illustrator 21.0.2, SVG Export Plug-In . SVG Version: 6.00 Build 0)  -->
<svg version="1.1" id="Layer_1" xmlns="http://www.w3.org/2000/svg" xmlns:xlink="http://www.w3.org/1999/xlink" x="0px" y="0px"
	 viewBox="0 0 87 87" enable-background="new 0 0 87 87" xml:space="preserve">
<path fill="#BEBEBE" d="M36.9,35.6h-4.4c-2.4,0-4.4,2-4.4,4.4v12.4c0,2.4,2,4.4,4.4,4.4h23.1c2.4,0,4.4-2,4.4-4.4V40.1
	c0-2.4-2-4.4-4.4-4.4h-4.4c0-2.3-2.1-4.4-4.4-4.4h-5.3C39,31.2,36.9,33.3,36.9,35.6z M32.9,38.3c0.7,0,1.3,0.8,1.3,1.8
	s-0.6,1.8-1.3,1.8s-1.3-0.8-1.3-1.8S32.2,38.3,32.9,38.3z M44,40.1c3.4,0,6.2,2.8,6.2,6.2s-2.8,6.2-6.2,6.2s-6.2-2.8-6.2-6.2
	S40.6,40.1,44,40.1z M44,42.3c-2.2,0-4,1.8-4,4c0,2.2,1.8,4,4,4c2.2,0,4-1.8,4-4C48,44.1,46.2,42.3,44,42.3z"/>
</svg>
